<svg width="25" height="24" viewBox="0 0 25 24" fill="none" xmlns="http://www.w3.org/2000/svg">
<path d="M19.75 9C19.75 9.41421 20.0858 9.75 20.5 9.75C20.9142 9.75 21.25 9.41421 21.25 9H19.75ZM9.5 21.75C9.91421 21.75 10.25 21.4142 10.25 21C10.25 20.5858 9.91421 20.25 9.5 20.25V21.75ZM16.25 3C16.25 2.58579 15.9142 2.25 15.5 2.25C15.0858 2.25 14.75 2.58579 14.75 3H16.25ZM14.75 7C14.75 7.41421 15.0858 7.75 15.5 7.75C15.9142 7.75 16.25 7.41421 16.25 7H14.75ZM10.25 3C10.25 2.58579 9.91421 2.25 9.5 2.25C9.08579 2.25 8.75 2.58579 8.75 3H10.25ZM8.75 7C8.75 7.41421 9.08579 7.75 9.5 7.75C9.91421 7.75 10.25 7.41421 10.25 7H8.75ZM4.5 10.25C4.08579 10.25 3.75 10.5858 3.75 11C3.75 11.4142 4.08579 11.75 4.5 11.75V10.25ZM9.5 11.75C9.91421 11.75 10.25 11.4142 10.25 11C10.25 10.5858 9.91421 10.25 9.5 10.25V11.75ZM12.5 19L11.9697 18.4697L11.75 18.6893V19H12.5ZM18.5 13L19.0303 12.4697C18.7374 12.1768 18.2626 12.1768 17.9697 12.4697L18.5 13ZM20.5 15L21.0303 15.5303C21.3232 15.2374 21.3232 14.7626 21.0303 14.4697L20.5 15ZM14.5 21V21.75H14.8107L15.0303 21.5303L14.5 21ZM12.5 21H11.75C11.75 21.4142 12.0858 21.75 12.5 21.75V21ZM6.5 5.75H18.5V4.25H6.5V5.75ZM5.25 19V7H3.75V19H5.25ZM6.5 20.25C5.80964 20.25 5.25 19.6904 5.25 19H3.75C3.75 20.5188 4.98122 21.75 6.5 21.75V20.25ZM18.5 5.75C19.1904 5.75 19.75 6.30964 19.75 7H21.25C21.25 5.48122 20.0188 4.25 18.5 4.25V5.75ZM6.5 4.25C4.98122 4.25 3.75 5.48122 3.75 7H5.25C5.25 6.30964 5.80964 5.75 6.5 5.75V4.25ZM19.75 7V9H21.25V7H19.75ZM9.5 20.25H6.5V21.75H9.5V20.25ZM14.75 3V7H16.25V3H14.75ZM8.75 3V7H10.25V3H8.75ZM4.5 11.75H9.5V10.25H4.5V11.75ZM13.0303 19.5303L19.0303 13.5303L17.9697 12.4697L11.9697 18.4697L13.0303 19.5303ZM17.9697 13.5303L19.9697 15.5303L21.0303 14.4697L19.0303 12.4697L17.9697 13.5303ZM19.9697 14.4697L13.9697 20.4697L15.0303 21.5303L21.0303 15.5303L19.9697 14.4697ZM14.5 20.25H12.5V21.75H14.5V20.25ZM13.25 21V19H11.75V21H13.25ZM16.4697 15.0303L18.4697 17.0303L19.5303 15.9697L17.5303 13.9697L16.4697 15.0303Z" fill="#101010"/>
</svg>
