<svg width="54" height="26" viewBox="0 0 54 26" fill="none" xmlns="http://www.w3.org/2000/svg">
<path fill-rule="evenodd" clip-rule="evenodd" d="M43.5728 6.80018L37.0819 6.76331V2.69564C37.0819 2.08938 36.8138 1.54047 36.3919 1.14722C35.9657 0.749877 35.3812 0.5 34.7264 0.5H10.3098C9.6594 0.5 9.07052 0.749877 8.64863 1.14313C8.22235 1.54047 7.95868 2.08529 7.95868 2.69155C7.95868 3.02745 8.23993 3.28552 8.5959 3.28552C8.95186 3.28552 9.23312 3.02335 9.23312 2.69155C9.23312 2.41709 9.35177 2.15902 9.55393 1.98288C9.75169 1.79854 10.0198 1.68384 10.3142 1.68384H34.7308C35.0252 1.68384 35.2889 1.79445 35.491 1.98288C35.6888 2.16721 35.8118 2.41709 35.8118 2.69155V21.3299H30.7712C30.4108 21.3299 30.134 21.5921 30.134 21.9239C30.134 22.2475 30.4152 22.5179 30.7712 22.5179H36.4447C36.805 22.5179 37.0819 22.2557 37.0819 21.9239V21.2398H40.9404C41.2348 15.0379 50.7712 14.1859 51.7424 21.2398H53.843C54.1199 19.8634 54.0188 18.2577 53.6321 16.488C53.1838 14.4235 53.3157 14.8249 51.2458 14.0835L47.0269 12.3221L43.5728 6.80018ZM8.08612 13.3871C8.44209 13.3871 8.72774 13.6575 8.72774 13.9852C8.72774 14.317 8.43769 14.5832 8.08612 14.5832H3.52449C3.16853 14.5832 2.88288 14.3129 2.88288 13.9852C2.88288 13.6534 3.17292 13.3871 3.52449 13.3871H8.08612ZM8.08612 9.4669C8.44209 9.4669 8.72774 9.73726 8.72774 10.065C8.72774 10.3968 8.43769 10.663 8.08612 10.663H2.31597C1.96001 10.663 1.67435 10.3927 1.67435 10.065C1.67435 9.73316 1.9644 9.4669 2.31597 9.4669H8.08612ZM8.08612 5.5467C8.44209 5.5467 8.72774 5.81706 8.72774 6.14476C8.72774 6.47657 8.43769 6.74283 8.08612 6.74283H0.641616C0.290046 6.74693 0 6.47657 0 6.14886C0 5.81706 0.290046 5.55079 0.641616 5.55079H8.08612V5.5467ZM17.6269 21.334C17.974 21.334 18.2641 21.5962 18.2641 21.928C18.2641 22.2516 17.9828 22.522 17.6269 22.522H10.323C9.67258 22.522 9.0837 22.2598 8.66182 21.8543C8.23554 21.4446 7.97186 20.8752 7.97186 20.2813V17.9013C7.97186 17.5777 8.25312 17.3073 8.60908 17.3073C8.96944 17.3073 9.2463 17.5695 9.2463 17.9013V20.2813C9.2463 20.568 9.37814 20.8384 9.5803 21.0391C9.77805 21.2234 10.0329 21.3504 10.3274 21.3504L17.6269 21.334ZM24.1177 17.4384C21.7227 17.4384 19.7934 19.249 19.7934 21.4692C19.7934 23.7017 21.7358 25.5 24.1177 25.5C26.5128 25.5 28.4421 23.6894 28.4421 21.4692C28.4421 19.2367 26.4996 17.4384 24.1177 17.4384ZM24.1177 19.9208C23.1993 19.9208 22.4566 20.6172 22.4566 21.4692C22.4566 22.3253 23.2037 23.0176 24.1177 23.0176C25.0362 23.0176 25.7789 22.3212 25.7789 21.4692C25.7833 20.6131 25.0362 19.9208 24.1177 19.9208ZM46.3414 17.4384C43.9463 17.4384 42.0171 19.249 42.0171 21.4692C42.0171 23.7017 43.9595 25.5 46.3414 25.5C48.7365 25.5 50.6657 23.6894 50.6657 21.4692C50.6657 19.2367 48.7233 17.4384 46.3414 17.4384ZM46.3414 19.9208C45.4229 19.9208 44.6802 20.6172 44.6802 21.4692C44.6802 22.3253 45.4273 23.0176 46.3414 23.0176C47.2599 23.0176 48.0026 22.3212 48.0026 21.4692C48.0026 20.6131 47.2599 19.9208 46.3414 19.9208ZM41.9116 8.50016L38.6903 8.4633V12.3302H44.0913L41.9116 8.50016Z" fill="black"/>
</svg>
