<svg width="20" height="20" viewBox="0 0 20 20" fill="none" xmlns="http://www.w3.org/2000/svg">
<g clip-path="url(#clip0_916_2518)">
<path d="M10 5.9425C9.46717 5.9425 8.93955 6.04745 8.44727 6.25136C7.95499 6.45526 7.50769 6.75414 7.13092 7.13091C6.75415 7.50769 6.45527 7.95498 6.25136 8.44726C6.04746 8.93954 5.9425 9.46716 5.9425 10C5.9425 10.5328 6.04746 11.0605 6.25136 11.5527C6.45527 12.045 6.75415 12.4923 7.13092 12.8691C7.50769 13.2459 7.95499 13.5447 8.44727 13.7486C8.93955 13.9525 9.46717 14.0575 10 14.0575C11.0761 14.0575 12.1082 13.63 12.8691 12.8691C13.63 12.1082 14.0575 11.0761 14.0575 10C14.0575 8.92388 13.63 7.89184 12.8691 7.13091C12.1082 6.36998 11.0761 5.9425 10 5.9425ZM7.19251 10C7.19251 9.2554 7.48829 8.5413 8.0148 8.01479C8.54131 7.48829 9.25541 7.1925 10 7.1925C10.7446 7.1925 11.4587 7.48829 11.9852 8.01479C12.5117 8.5413 12.8075 9.2554 12.8075 10C12.8075 10.7446 12.5117 11.4587 11.9852 11.9852C11.4587 12.5117 10.7446 12.8075 10 12.8075C9.25541 12.8075 8.54131 12.5117 8.0148 11.9852C7.48829 11.4587 7.19251 10.7446 7.19251 10Z" fill="black"/>
<path d="M12.245 1.67875C11.5862 -0.558749 8.41374 -0.558749 7.75498 1.67875L7.63749 2.0775C7.59148 2.23369 7.51111 2.37761 7.40226 2.4987C7.29341 2.61979 7.15884 2.71499 7.00841 2.77732C6.85799 2.83964 6.69552 2.86752 6.53293 2.8589C6.37033 2.85028 6.21173 2.80538 6.06874 2.7275L5.70374 2.5275C3.65374 1.4125 1.41249 3.655 2.52874 5.70375L2.72749 6.06875C2.80537 6.21174 2.85026 6.37035 2.85888 6.53294C2.8675 6.69554 2.83963 6.858 2.7773 7.00843C2.71497 7.15885 2.61978 7.29342 2.49868 7.40227C2.37759 7.51112 2.23368 7.5915 2.07749 7.6375L1.67874 7.755C-0.558765 8.41375 -0.558765 11.5863 1.67874 12.245L2.07749 12.3625C2.23368 12.4085 2.37759 12.4889 2.49868 12.5977C2.61978 12.7066 2.71497 12.8412 2.7773 12.9916C2.83963 13.142 2.8675 13.3045 2.85888 13.4671C2.85026 13.6297 2.80537 13.7883 2.72749 13.9313L2.52749 14.2963C1.41249 16.3463 3.65374 18.5888 5.70374 17.4713L6.06874 17.2725C6.21173 17.1946 6.37033 17.1497 6.53293 17.1411C6.69552 17.1325 6.85799 17.1604 7.00841 17.2227C7.15884 17.285 7.29341 17.3802 7.40226 17.5013C7.51111 17.6224 7.59148 17.7663 7.63749 17.9225L7.75498 18.3213C8.41374 20.5588 11.5862 20.5588 12.245 18.3213L12.3625 17.9225C12.4085 17.7663 12.4889 17.6224 12.5977 17.5013C12.7066 17.3802 12.8411 17.285 12.9916 17.2227C13.142 17.1604 13.3044 17.1325 13.467 17.1411C13.6296 17.1497 13.7882 17.1946 13.9312 17.2725L14.2962 17.4725C16.3462 18.5888 18.5887 16.345 17.4712 14.2963L17.2725 13.9313C17.1946 13.7883 17.1497 13.6297 17.1411 13.4671C17.1325 13.3045 17.1603 13.142 17.2227 12.9916C17.285 12.8412 17.3802 12.7066 17.5013 12.5977C17.6224 12.4889 17.7663 12.4085 17.9225 12.3625L18.3212 12.245C20.5587 11.5863 20.5587 8.41375 18.3212 7.755L17.9225 7.6375C17.7663 7.5915 17.6224 7.51112 17.5013 7.40227C17.3802 7.29342 17.285 7.15885 17.2227 7.00843C17.1603 6.858 17.1325 6.69554 17.1411 6.53294C17.1497 6.37035 17.1946 6.21174 17.2725 6.06875L17.4725 5.70375C18.5887 3.65375 16.345 1.4125 14.2962 2.52875L13.9312 2.7275C13.7882 2.80538 13.6296 2.85028 13.467 2.8589C13.3044 2.86752 13.142 2.83964 12.9916 2.77732C12.8411 2.71499 12.7066 2.61979 12.5977 2.4987C12.4889 2.37761 12.4085 2.23369 12.3625 2.0775L12.245 1.67875ZM8.95374 2.0325C9.26124 0.988751 10.7387 0.988751 11.0462 2.0325L11.1637 2.43125C11.2625 2.76636 11.435 3.07511 11.6686 3.33487C11.9023 3.59464 12.191 3.79883 12.5138 3.93248C12.8366 4.06612 13.1852 4.12583 13.5341 4.10724C13.883 4.08864 14.2232 3.9922 14.53 3.825L14.8937 3.625C15.8487 3.10625 16.8937 4.15 16.3737 5.10625L16.175 5.47125C16.008 5.77803 15.9118 6.11828 15.8934 6.46707C15.875 6.81586 15.9349 7.16434 16.0687 7.48698C16.2024 7.80962 16.4067 8.09825 16.6665 8.33172C16.9262 8.56519 17.2349 8.73757 17.57 8.83625L17.9675 8.95375C19.0112 9.26125 19.0112 10.7388 17.9675 11.0463L17.5687 11.1638C17.2336 11.2625 16.9249 11.435 16.6651 11.6687C16.4053 11.9023 16.2012 12.1911 16.0675 12.5138C15.9339 12.8366 15.8742 13.1852 15.8927 13.5341C15.9113 13.883 16.0078 14.2233 16.175 14.53L16.375 14.8938C16.8937 15.8488 15.85 16.8938 14.8937 16.3738L14.53 16.175C14.2232 16.0078 13.8828 15.9114 13.5339 15.8929C13.1849 15.8744 12.8363 15.9342 12.5135 16.068C12.1907 16.2018 11.9019 16.4061 11.6683 16.666C11.4348 16.9259 11.2624 17.2348 11.1637 17.57L11.0462 17.9675C10.7387 19.0112 9.26124 19.0112 8.95374 17.9675L8.83624 17.5688C8.73742 17.2338 8.56493 16.9252 8.3314 16.6656C8.09787 16.406 7.80922 16.2019 7.4866 16.0682C7.16397 15.9346 6.81554 15.8748 6.46682 15.8933C6.1181 15.9118 5.77794 16.008 5.47123 16.175L5.10624 16.375C4.15124 16.8938 3.10624 15.85 3.62624 14.8938L3.82499 14.53C3.99242 14.2232 4.08905 13.8828 4.10777 13.5338C4.12649 13.1848 4.06683 12.836 3.93317 12.5131C3.7995 12.1901 3.59523 11.9012 3.33533 11.6675C3.07544 11.4338 2.76652 11.2612 2.43124 11.1625L2.03249 11.045C0.988735 10.7375 0.988735 9.26 2.03249 8.9525L2.43124 8.835C2.76599 8.73614 3.07441 8.56368 3.33391 8.33024C3.59342 8.0968 3.79744 7.80829 3.93105 7.48582C4.06466 7.16335 4.12448 6.81509 4.10613 6.46653C4.08778 6.11796 3.99172 5.7779 3.82499 5.47125L3.62499 5.10625C3.10624 4.15125 4.14999 3.10625 5.10624 3.62625L5.47123 3.825C5.77794 3.99197 6.1181 4.08822 6.46682 4.10669C6.81554 4.12517 7.16397 4.0654 7.4866 3.93177C7.80922 3.79814 8.09787 3.59404 8.3314 3.3344C8.56493 3.07477 8.73742 2.76618 8.83624 2.43125L8.95374 2.0325Z" fill="black"/>
</g>
<defs>
<clipPath id="clip0_916_2518">
<rect width="20" height="20" fill="white"/>
</clipPath>
</defs>
</svg>
