<svg width="20" height="20" viewBox="0 0 20 20" fill="none" xmlns="http://www.w3.org/2000/svg">
<path d="M18.0273 5.53906C17.7655 4.93288 17.3881 4.38357 16.916 3.92188C16.4436 3.4588 15.8866 3.0908 15.2754 2.83789C14.6416 2.5746 13.9617 2.43983 13.2754 2.44141C12.3125 2.44141 11.373 2.70508 10.5566 3.20313C10.3613 3.32227 10.1758 3.45313 10 3.5957C9.82422 3.45313 9.63867 3.32227 9.44336 3.20313C8.62695 2.70508 7.6875 2.44141 6.72461 2.44141C6.03125 2.44141 5.35938 2.57422 4.72461 2.83789C4.11133 3.0918 3.55859 3.45703 3.08398 3.92188C2.61132 4.38305 2.23375 4.93249 1.97266 5.53906C1.70117 6.16992 1.5625 6.83984 1.5625 7.5293C1.5625 8.17969 1.69531 8.85742 1.95898 9.54687C2.17969 10.123 2.49609 10.7207 2.90039 11.3242C3.54102 12.2793 4.42188 13.2754 5.51563 14.2852C7.32813 15.959 9.12305 17.1152 9.19922 17.1621L9.66211 17.459C9.86719 17.5898 10.1309 17.5898 10.3359 17.459L10.7988 17.1621C10.875 17.1133 12.668 15.959 14.4824 14.2852C15.5762 13.2754 16.457 12.2793 17.0977 11.3242C17.502 10.7207 17.8203 10.123 18.0391 9.54687C18.3027 8.85742 18.4355 8.17969 18.4355 7.5293C18.4375 6.83984 18.2988 6.16992 18.0273 5.53906ZM10 15.9141C10 15.9141 3.04688 11.459 3.04688 7.5293C3.04688 5.53906 4.69336 3.92578 6.72461 3.92578C8.15234 3.92578 9.39063 4.72266 10 5.88672C10.6094 4.72266 11.8477 3.92578 13.2754 3.92578C15.3066 3.92578 16.9531 5.53906 16.9531 7.5293C16.9531 11.459 10 15.9141 10 15.9141Z" fill="black"/>
</svg>
