<svg width="24" height="24" fill="none" xmlns="http://www.w3.org/2000/svg"><path d="M.493 15.5A12.015 12.015 0 0 0 11.986 24C18.621 24 24 18.627 24 12S18.621 0 11.986 0A12.009 12.009 0 0 0 0 11.202l.004.009 6.456 2.653a3.297 3.297 0 0 1 1.97-.544l2.94-4.266-.002-.06a4.57 4.57 0 0 1 4.563-4.564 4.569 4.569 0 0 1 4.563 4.564 4.57 4.57 0 0 1-4.666 4.566l-4.206 3a3.334 3.334 0 0 1-5.884 2.23 3.326 3.326 0 0 1-.697-1.417L.495 15.499H.493Z" fill="#000"/><path d="M7.302 19.024a2.572 2.572 0 0 0 1.977-4.747 2.558 2.558 0 0 0-1.894-.03l1.534.636a1.892 1.892 0 1 1-1.455 3.495l-1.485-.615a2.55 2.55 0 0 0 1.323 1.26v.002Zm5.589-10.03a3.045 3.045 0 0 0 3.04 3.043 3.045 3.045 0 0 0 3.041-3.043 3.045 3.045 0 0 0-3.04-3.04 3.045 3.045 0 0 0-3.041 3.04Zm3.045-2.29a2.286 2.286 0 1 1-.003 4.572 2.286 2.286 0 0 1 .003-4.572Z" fill="#000"/></svg>