<svg width="24" height="24" fill="none" xmlns="http://www.w3.org/2000/svg"><g clip-path="url(#a)"><path d="M12.076 2.998h.134c1.233.005 7.48.05 9.165.503a3.015 3.015 0 0 1 2.122 2.13c.152.57.259 1.325.33 2.103l.015.156.034.39.011.156a47.61 47.61 0 0 1 .111 2.935v.113a48.123 48.123 0 0 1-.123 3.09l-.012.158-.013.155c-.075.858-.186 1.71-.353 2.337a3.01 3.01 0 0 1-2.122 2.13c-1.74.469-8.354.502-9.27.503h-.213c-.463 0-2.38-.009-4.39-.078l-.255-.009-.131-.006-.256-.01-.257-.011c-1.665-.073-3.25-.192-3.981-.39A3.01 3.01 0 0 1 .5 17.224C.333 16.6.222 15.745.147 14.887l-.012-.157-.012-.156A47.099 47.099 0 0 1 0 11.52v-.184c.003-.323.015-1.438.096-2.668l.01-.154.005-.078.012-.156.033-.39.015-.156c.072-.778.178-1.535.33-2.103a3.01 3.01 0 0 1 2.123-2.13c.73-.195 2.315-.315 3.98-.39l.255-.01.258-.01.13-.004.256-.01c1.428-.046 2.856-.072 4.284-.077h.29v-.002ZM9.6 7.814v7.226l6.236-3.611L9.6 7.813Z" fill="#DF0000"/></g><defs><clipPath id="a"><path fill="#fff" d="M0 0h24v24H0z"/></clipPath></defs></svg>