<svg width="21" height="21" viewBox="0 0 21 21" xmlns="http://www.w3.org/2000/svg">
<path d="M17.526 5.91855L13.1127 1.50527C12.9896 1.38223 12.8235 1.3125 12.6492 1.3125H3.9375C3.57451 1.3125 3.28125 1.60576 3.28125 1.96875V19.0312C3.28125 19.3942 3.57451 19.6875 3.9375 19.6875H17.0625C17.4255 19.6875 17.7188 19.3942 17.7188 19.0312V6.38408C17.7188 6.20977 17.649 6.0416 17.526 5.91855ZM16.2053 6.68555H12.3457V2.82598L16.2053 6.68555ZM16.2422 18.2109H4.75781V2.78906H10.9512V7.21875C10.9512 7.44719 11.0419 7.66627 11.2034 7.8278C11.365 7.98933 11.5841 8.08008 11.8125 8.08008H16.2422V18.2109ZM11.1562 9.67969C11.1562 9.58945 11.0824 9.51562 10.9922 9.51562H10.0078C9.91758 9.51562 9.84375 9.58945 9.84375 9.67969V11.8945H7.62891C7.53867 11.8945 7.46484 11.9684 7.46484 12.0586V13.043C7.46484 13.1332 7.53867 13.207 7.62891 13.207H9.84375V15.4219C9.84375 15.5121 9.91758 15.5859 10.0078 15.5859H10.9922C11.0824 15.5859 11.1562 15.5121 11.1562 15.4219V13.207H13.3711C13.4613 13.207 13.5352 13.1332 13.5352 13.043V12.0586C13.5352 11.9684 13.4613 11.8945 13.3711 11.8945H11.1562V9.67969Z"/>
</svg>
