<svg width="22" height="22" viewBox="0 0 22 22" xmlns="http://www.w3.org/2000/svg">
<g clip-path="url(#clip0_1038_1486)">
<path d="M16.1447 14.2242C17.4761 12.4074 18.0724 10.1548 17.8144 7.91724C17.5563 5.67965 16.4629 3.622 14.7529 2.15596C13.0429 0.689927 10.8424 -0.0763846 8.59161 0.010341C6.34086 0.0970666 4.20584 1.03043 2.61371 2.62371C1.02157 4.21698 0.0897339 6.35266 0.00461896 8.60348C-0.080496 10.8543 0.68739 13.0543 2.15465 14.7632C3.62191 16.4722 5.68034 17.5641 7.91811 17.8206C10.1559 18.077 12.408 17.4791 14.2238 16.1464H14.2225C14.2637 16.2014 14.3077 16.2537 14.3572 16.3045L19.651 21.5983C19.9088 21.8563 20.2585 22.0013 20.6233 22.0014C20.988 22.0016 21.3379 21.8568 21.5959 21.599C21.8539 21.3411 21.9989 20.9914 21.9991 20.6266C21.9992 20.2619 21.8544 19.912 21.5966 19.654L16.3028 14.3603C16.2537 14.3105 16.2008 14.2646 16.1447 14.2228V14.2242ZM16.4995 8.93866C16.4995 9.93178 16.3039 10.9152 15.9238 11.8327C15.5437 12.7502 14.9867 13.5839 14.2845 14.2862C13.5822 14.9884 12.7485 15.5454 11.831 15.9255C10.9135 16.3055 9.93008 16.5012 8.93696 16.5012C7.94384 16.5012 6.96044 16.3055 6.04292 15.9255C5.1254 15.5454 4.29171 14.9884 3.58947 14.2862C2.88723 13.5839 2.33018 12.7502 1.95013 11.8327C1.57007 10.9152 1.37446 9.93178 1.37446 8.93866C1.37446 6.93296 2.17123 5.00941 3.58947 3.59117C5.00771 2.17292 6.93126 1.37616 8.93696 1.37616C10.9427 1.37616 12.8662 2.17292 14.2845 3.59117C15.7027 5.00941 16.4995 6.93296 16.4995 8.93866Z"/>
</g>
<defs>
<clipPath id="clip0_1038_1486">
<rect width="22" height="22" fill="white"/>
</clipPath>
</defs>
</svg>
