<svg width="22" height="22" viewBox="0 0 22 22" fill="none" xmlns="http://www.w3.org/2000/svg">
<g clip-path="url(#clip0_1001_1508)">
<path d="M16.1448 14.2242C17.4762 12.4074 18.0725 10.1548 17.8144 7.91724C17.5564 5.67965 16.463 3.622 14.7529 2.15596C13.0429 0.689927 10.8424 -0.0763846 8.59167 0.010341C6.34092 0.0970666 4.2059 1.03043 2.61377 2.62371C1.02163 4.21698 0.089795 6.35266 0.00468 8.60348C-0.080435 10.8543 0.687451 13.0543 2.15471 14.7632C3.62197 16.4722 5.6804 17.5641 7.91817 17.8206C10.156 18.077 12.408 17.4791 14.2239 16.1464H14.2225C14.2638 16.2014 14.3078 16.2537 14.3573 16.3045L19.651 21.5983C19.9088 21.8563 20.2586 22.0013 20.6233 22.0014C20.9881 22.0016 21.338 21.8568 21.596 21.599C21.854 21.3411 21.999 20.9914 21.9991 20.6266C21.9992 20.2619 21.8545 19.912 21.5966 19.654L16.3029 14.3603C16.2537 14.3105 16.2009 14.2646 16.1448 14.2228V14.2242ZM16.4995 8.93866C16.4995 9.93178 16.3039 10.9152 15.9239 11.8327C15.5438 12.7502 14.9868 13.5839 14.2845 14.2862C13.5823 14.9884 12.7486 15.5454 11.8311 15.9255C10.9135 16.3055 9.93014 16.5012 8.93702 16.5012C7.9439 16.5012 6.96051 16.3055 6.04298 15.9255C5.12546 15.5454 4.29177 14.9884 3.58953 14.2862C2.88729 13.5839 2.33024 12.7502 1.95019 11.8327C1.57013 10.9152 1.37453 9.93178 1.37453 8.93866C1.37453 6.93296 2.17129 5.00941 3.58953 3.59117C5.00777 2.17292 6.93132 1.37616 8.93702 1.37616C10.9427 1.37616 12.8663 2.17292 14.2845 3.59117C15.7028 5.00941 16.4995 6.93296 16.4995 8.93866Z" fill="black"/>
</g>
<defs>
<clipPath id="clip0_1001_1508">
<rect width="22" height="22" fill="white"/>
</clipPath>
</defs>
</svg>
