<svg width="20" height="20" viewBox="0 0 20 20" xmlns="http://www.w3.org/2000/svg">
<path d="M16.25 6.09375H13.5938V5.78125C13.5938 3.79688 11.9844 2.1875 10 2.1875C8.01562 2.1875 6.40625 3.79688 6.40625 5.78125V6.09375H3.75C3.4043 6.09375 3.125 6.37305 3.125 6.71875V17.1875C3.125 17.5332 3.4043 17.8125 3.75 17.8125H16.25C16.5957 17.8125 16.875 17.5332 16.875 17.1875V6.71875C16.875 6.37305 16.5957 6.09375 16.25 6.09375ZM7.8125 5.78125C7.8125 4.57227 8.79102 3.59375 10 3.59375C11.209 3.59375 12.1875 4.57227 12.1875 5.78125V6.09375H7.8125V5.78125ZM15.4688 16.4062H4.53125V7.5H6.40625V9.21875C6.40625 9.30469 6.47656 9.375 6.5625 9.375H7.65625C7.74219 9.375 7.8125 9.30469 7.8125 9.21875V7.5H12.1875V9.21875C12.1875 9.30469 12.2578 9.375 12.3438 9.375H13.4375C13.5234 9.375 13.5938 9.30469 13.5938 9.21875V7.5H15.4688V16.4062Z"/>
</svg>
