<svg width="21" height="21" fill="none" xmlns="http://www.w3.org/2000/svg"><path d="m17.526 5.919-4.413-4.414a.655.655 0 0 0-.464-.192H3.938a.656.656 0 0 0-.657.656V19.03c0 .363.294.657.656.657h13.126a.656.656 0 0 0 .656-.657V6.384a.66.66 0 0 0-.193-.465Zm-1.32.767h-3.86v-3.86l3.86 3.86Zm.036 11.525H4.758V2.789h6.193v4.43a.861.861 0 0 0 .861.861h4.43v10.13ZM11.156 9.68a.165.165 0 0 0-.164-.164h-.984a.165.165 0 0 0-.164.164v2.215H7.629a.165.165 0 0 0-.164.164v.984c0 .09.074.164.164.164h2.215v2.215c0 .09.074.164.164.164h.984c.09 0 .164-.074.164-.164v-2.215h2.215c.09 0 .164-.074.164-.164v-.984a.165.165 0 0 0-.164-.164h-2.215V9.68Z" fill="#000"/></svg>