<svg width="25" height="24" fill="none" xmlns="http://www.w3.org/2000/svg"><path d="M19.75 9a.75.75 0 0 0 1.5 0h-1.5ZM9.5 21.75a.75.75 0 0 0 0-1.5v1.5ZM16.25 3a.75.75 0 0 0-1.5 0h1.5Zm-1.5 4a.75.75 0 0 0 1.5 0h-1.5Zm-4.5-4a.75.75 0 0 0-1.5 0h1.5Zm-1.5 4a.75.75 0 0 0 1.5 0h-1.5ZM4.5 10.25a.75.75 0 0 0 0 1.5v-1.5Zm5 1.5a.75.75 0 0 0 0-1.5v1.5Zm3 7.25-.53-.53-.22.22V19h.75Zm6-6 .53-.53a.75.75 0 0 0-1.06 0l.53.53Zm2 2 .53.53a.75.75 0 0 0 0-1.06l-.53.53Zm-6 6v.75h.31l.22-.22-.53-.53Zm-2 0h-.75c0 .414.336.75.75.75V21Zm-6-15.25h12v-1.5h-12v1.5ZM5.25 19V7h-1.5v12h1.5Zm1.25 1.25c-.69 0-1.25-.56-1.25-1.25h-1.5a2.75 2.75 0 0 0 2.75 2.75v-1.5Zm12-14.5c.69 0 1.25.56 1.25 1.25h1.5a2.75 2.75 0 0 0-2.75-2.75v1.5Zm-12-1.5A2.75 2.75 0 0 0 3.75 7h1.5c0-.69.56-1.25 1.25-1.25v-1.5ZM19.75 7v2h1.5V7h-1.5ZM9.5 20.25h-3v1.5h3v-1.5ZM14.75 3v4h1.5V3h-1.5Zm-6 0v4h1.5V3h-1.5ZM4.5 11.75h5v-1.5h-5v1.5Zm8.53 7.78 6-6-1.06-1.06-6 6 1.06 1.06Zm4.94-6 2 2 1.06-1.06-2-2-1.06 1.06Zm2 .94-6 6 1.06 1.06 6-6-1.06-1.06Zm-5.47 5.78h-2v1.5h2v-1.5Zm-1.25.75v-2h-1.5v2h1.5Zm3.22-5.97 2 2 1.06-1.06-2-2-1.06 1.06Z" fill="#101010"/></svg>