<svg width="54" height="26" fill="none" xmlns="http://www.w3.org/2000/svg"><path fill-rule="evenodd" clip-rule="evenodd" d="m43.573 6.8-6.491-.037V2.696c0-.607-.268-1.156-.69-1.549A2.432 2.432 0 0 0 34.726.5H10.31c-.65 0-1.24.25-1.661.643-.427.397-.69.942-.69 1.549 0 .335.28.594.637.594.356 0 .637-.263.637-.594a.94.94 0 0 1 .32-.71c.199-.183.467-.298.761-.298h24.417c.294 0 .558.11.76.299.198.184.32.434.32.709V21.33h-5.04c-.36 0-.637.262-.637.594 0 .323.281.594.637.594h5.674c.36 0 .637-.262.637-.594v-.684h3.858c.295-6.202 9.831-7.054 10.802 0h2.101c.277-1.377.176-2.982-.21-4.752-.45-2.064-.317-1.663-2.387-2.404l-4.22-1.762L43.574 6.8ZM8.086 13.387c.356 0 .642.27.642.598 0 .332-.29.598-.642.598H3.524c-.355 0-.641-.27-.641-.598 0-.332.29-.598.641-.598h4.562Zm0-3.92c.356 0 .642.27.642.598 0 .332-.29.598-.642.598h-5.77c-.356 0-.642-.27-.642-.598 0-.332.29-.598.642-.598h5.77Zm0-3.92c.356 0 .642.27.642.598 0 .332-.29.598-.642.598H.642C.29 6.747 0 6.477 0 6.149c0-.332.29-.598.642-.598h7.444v-.004Zm9.54 15.787c.348 0 .638.262.638.594 0 .324-.281.594-.637.594h-7.304a2.4 2.4 0 0 1-1.661-.668 2.206 2.206 0 0 1-.69-1.573v-2.38c0-.323.281-.594.637-.594.36 0 .637.263.637.594v2.38c0 .287.132.557.334.758.198.184.453.311.747.311l7.3-.016Zm6.492-3.896c-2.395 0-4.325 1.811-4.325 4.031 0 2.233 1.943 4.031 4.325 4.031 2.395 0 4.324-1.81 4.324-4.03 0-2.233-1.942-4.032-4.324-4.032Zm0 2.483c-.919 0-1.661.696-1.661 1.548 0 .856.747 1.549 1.66 1.549.92 0 1.662-.697 1.662-1.549.004-.856-.743-1.548-1.661-1.548Zm22.223-2.483c-2.395 0-4.324 1.811-4.324 4.031 0 2.233 1.942 4.031 4.324 4.031 2.395 0 4.325-1.81 4.325-4.03 0-2.233-1.943-4.032-4.325-4.032Zm0 2.483c-.918 0-1.66.696-1.66 1.548 0 .856.746 1.549 1.66 1.549.919 0 1.662-.697 1.662-1.549 0-.856-.743-1.548-1.662-1.548ZM41.911 8.5l-3.22-.038v3.867h5.4l-2.18-3.83Z" fill="#000"/></svg>