<svg width="20" height="20" fill="none" xmlns="http://www.w3.org/2000/svg"><path d="M16.25 6.094h-2.656V5.78a3.594 3.594 0 0 0-7.188 0v.313H3.75a.624.624 0 0 0-.625.625v10.468c0 .346.28.625.625.625h12.5a.624.624 0 0 0 .625-.625V6.72a.624.624 0 0 0-.625-.625ZM7.812 5.78c0-1.209.979-2.187 2.188-2.187s2.188.978 2.188 2.187v.313H7.811V5.78Zm7.657 10.625H4.53V7.5h1.875v1.719c0 .086.07.156.157.156h1.093c.086 0 .157-.07.157-.156V7.5h4.375v1.719c0 .086.07.156.156.156h1.094c.085 0 .156-.07.156-.156V7.5h1.875v8.906Z" fill="#000"/></svg>