<svg width="20" height="20" fill="none" xmlns="http://www.w3.org/2000/svg"><g clip-path="url(#a)" fill="#000"><path d="M10 5.942a4.057 4.057 0 1 0 0 8.115 4.057 4.057 0 0 0 0-8.115ZM7.193 10a2.807 2.807 0 1 1 5.615 0 2.807 2.807 0 0 1-5.615 0Z"/><path d="M12.245 1.679c-.659-2.238-3.831-2.238-4.49 0l-.118.399a1.091 1.091 0 0 1-1.568.65l-.365-.2c-2.05-1.115-4.292 1.127-3.175 3.176l.198.365a1.091 1.091 0 0 1-.65 1.569l-.398.117c-2.238.659-2.238 3.831 0 4.49l.398.118a1.092 1.092 0 0 1 .65 1.568l-.2.365c-1.115 2.05 1.127 4.293 3.177 3.175l.365-.198a1.09 1.09 0 0 1 1.568.65l.118.398c.659 2.238 3.831 2.238 4.49 0l.118-.399a1.092 1.092 0 0 1 1.568-.65l.365.2c2.05 1.117 4.293-1.127 3.175-3.176l-.198-.365a1.09 1.09 0 0 1 .65-1.568l.398-.118c2.238-.659 2.238-3.831 0-4.49l-.399-.117a1.091 1.091 0 0 1-.65-1.57l.2-.364c1.117-2.05-1.127-4.291-3.176-3.175l-.365.199a1.091 1.091 0 0 1-1.568-.65l-.118-.4Zm-3.291.354c.307-1.044 1.785-1.044 2.092 0l.118.398a2.342 2.342 0 0 0 3.366 1.394l.364-.2c.955-.519 2 .525 1.48 1.481l-.199.365a2.34 2.34 0 0 0 1.395 3.365l.398.118c1.043.307 1.043 1.785 0 2.092l-.4.118a2.34 2.34 0 0 0-1.393 3.366l.2.364c.519.955-.525 2-1.481 1.48l-.364-.199a2.34 2.34 0 0 0-3.366 1.395l-.118.398c-.307 1.043-1.785 1.043-2.092 0l-.118-.4a2.34 2.34 0 0 0-3.365-1.393l-.365.2c-.955.519-2-.525-1.48-1.481l.199-.364a2.341 2.341 0 0 0-1.394-3.367l-.399-.118C.99 10.738.99 9.26 2.032 8.953l.4-.118a2.341 2.341 0 0 0 1.393-3.364l-.2-.365c-.519-.955.525-2 1.481-1.48l.365.199a2.341 2.341 0 0 0 3.365-1.394l.118-.398Z"/></g><defs><clipPath id="a"><path fill="#fff" d="M0 0h20v20H0z"/></clipPath></defs></svg>