<?xml version="1.0" encoding="utf-8"?><svg width="65" height="58" viewBox="0 0 65 58" xmlns="http://www.w3.org/2000/svg" xmlns:xlink="http://www.w3.org/1999/xlink"><view id="svg-arrow" viewBox="24 34 15 13"/><svg width="15" height="13" fill="none" viewBox="-1 -1 15 13" x="24" y="34" xmlns="http://www.w3.org/2000/svg"><path d="M11.458 5.5H1.042m10.416 0L7.292 9.667M11.458 5.5L7.292 1.333" stroke="#000" stroke-width="1.5" stroke-linecap="round" stroke-linejoin="round"/></svg><view id="svg-basket" viewBox="34 0 31 28"/><svg width="31" height="28" fill="none" viewBox="-1 -1 31 28" x="34" xmlns="http://www.w3.org/2000/svg"><path d="M27.84 17.934H9.232l.935-1.903 15.525-.028c.525 0 .975-.375 1.069-.894l2.15-12.034a1.086 1.086 0 00-1.066-1.278L8.094 1.73 7.925.937A1.11 1.11 0 006.844.063H2.016a1.103 1.103 0 000 2.207H5.95l.738 3.506 1.815 8.79-2.337 3.816a1.092 1.092 0 00-.094 1.15 1.1 1.1 0 00.984.607H9.02a3.209 3.209 0 002.562 5.134 3.209 3.209 0 003.207-3.206c0-.697-.232-1.375-.644-1.928h5.034a3.209 3.209 0 002.563 5.134 3.209 3.209 0 003.206-3.206c0-.697-.231-1.375-.644-1.928h3.54c.607 0 1.104-.494 1.104-1.104a1.107 1.107 0 00-1.106-1.1zM8.554 3.906l17.994.06-1.762 9.868-14.135.025-2.097-9.953zm3.028 19.147a.99.99 0 01-.987-.987.99.99 0 01.987-.988.99.99 0 01.699 1.686.988.988 0 01-.699.29zm10.16 0a.99.99 0 01-.988-.987.99.99 0 01.988-.988.99.99 0 01.698 1.686.988.988 0 01-.698.29z" fill="#000"/></svg><view id="svg-burger" viewBox="0 0 34 34"/><svg width="34" height="34" fill="none" viewBox="-1 -1 34 34" xmlns="http://www.w3.org/2000/svg"><path d="M5 11l3-3-3-3m7 3h15-15zm-7 8h22H5zm0 8h22H5z" stroke="#000" stroke-width="2" stroke-linecap="round" stroke-linejoin="round"/></svg><view id="svg-close" viewBox="51 34 11 11"/><svg width="11" height="11" fill="none" viewBox="-1 -1 11 11" x="51" y="34" xmlns="http://www.w3.org/2000/svg"><path d="M8 1L1 8m0-7l7 7" stroke="#000" stroke-width="1.5" stroke-linecap="round" stroke-linejoin="round"/></svg><view id="svg-loop" viewBox="0 34 24 24"/><svg width="24" height="24" fill="none" viewBox="-1 -1 24 24" y="34" xmlns="http://www.w3.org/2000/svg"><g clip-path="url(#eclip0_1001_1508)"><path d="M16.145 14.224a8.937 8.937 0 10-1.921 1.922h-.002c.042.055.086.108.135.159l5.294 5.293a1.375 1.375 0 101.946-1.944l-5.294-5.294a1.387 1.387 0 00-.158-.137v.001zM16.5 8.94a7.563 7.563 0 11-15.127 0 7.563 7.563 0 0115.127 0z" fill="#000"/></g><defs><clipPath id="eclip0_1001_1508"><path fill="#fff" d="M0 0h22v22H0z"/></clipPath></defs></svg><view id="svg-minus" viewBox="34 28 12 5"/><svg width="12" height="5" fill="none" viewBox="-1 -1 12 5" x="34" y="28" xmlns="http://www.w3.org/2000/svg"><path d="M1 .75a.75.75 0 000 1.5V.75zm8 1.5a.75.75 0 000-1.5v1.5zm-8 0h8V.75H1v1.5z" fill="#C8C8C8"/></svg><view id="svg-plus" viewBox="39 34 12 13"/><svg width="12" height="13" fill="none" viewBox="-1 -1 12 13" x="39" y="34" xmlns="http://www.w3.org/2000/svg"><path d="M5.75 1.5a.75.75 0 00-1.5 0h1.5zm-1.5 8a.75.75 0 001.5 0h-1.5zM1 4.75a.75.75 0 000 1.5v-1.5zm8 1.5a.75.75 0 000-1.5v1.5zM4.25 1.5v8h1.5v-8h-1.5zM1 6.25h8v-1.5H1v1.5z" fill="#C8C8C8"/></svg></svg>